# xmcd
#
# Track frame offsets:
#  150
#  14350
#  27100
#  38782
#  51872
#  62904
#  73989
#  85661
#  96837
#  108818
#  120260
#  132324
#  143944
#  156151
#  168422
#  179959
#  192232
#  202562
#  213323
#  224504
#
# Disc length: 3144 seconds
#
# Revision: 0
# Processed by: cddbd v1.4PL0 Copyright (c) Steve Scherf et al.
# Submitted via: AltoMP3_Maker 3.0
#
DISCID=200c4614
DTITLE=Patsy Cline - Briljant Collection
DYEAR=1900
DGENRE=
TTITLE0=A church, a courtroom and then goodbye
TTITLE1=A poor man's roses
TTITLE2=Cry not for me
TTITLE3=Fingerprints
TTITLE4=Got a lot of rhythm in my soul
TTITLE5=Honky tonk merry go round
TTITLE6=Hidin' out
TTITLE7=I cried all the way to the altar
TTITLE8=I've loved and lost again
TTITLE9=I can't forget
TTITLE10=In care of the blues
TTITLE11=Just out of reach
TTITLE12=Let the teardrops fall
TTITLE13=Never no more
TTITLE14=Stop the world and let me off
TTITLE15=Today, tomorrow and forever
TTITLE16=Turn the cards slowly
TTITLE17=Too many secrets
TTITLE18=Three cigarettes in an ashtray
TTITLE19=Walkin' after midnight
EXTD=
EXTT0=
EXTT1=
EXTT2=
EXTT3=
EXTT4=
EXTT5=
EXTT6=
EXTT7=
EXTT8=
EXTT9=
EXTT10=
EXTT11=
EXTT12=
EXTT13=
EXTT14=
EXTT15=
EXTT16=
EXTT17=
EXTT18=
EXTT19=
PLAYORDER=
